<?xml version="1.0" encoding="utf-8"?>
<!-- Generator: Adobe Illustrator 25.0.0, SVG Export Plug-In . SVG Version: 6.00 Build 0)  -->
<svg version="1.1" id="Layer_1" xmlns="http://www.w3.org/2000/svg" xmlns:xlink="http://www.w3.org/1999/xlink" x="0px" y="0px"
	 viewBox="0 0 426.5 123" style="enable-background:new 0 0 426.5 123;" xml:space="preserve">
<style type="text/css">
	.st0{fill:#00376E;}
	.st1{fill:#0066CC;}
	.st2{opacity:0.2;fill:#00376E;enable-background:new    ;}
</style>
<g>
	<g>
		<g>
			<polygon class="st0" points="1.9,91.9 53.9,121.9 27.9,76.9 			"/>
			<polygon class="st1" points="53.9,1.9 38.3,10.9 1.9,31.9 27.9,76.9 53.9,121.9 105.8,91.9 			"/>
		</g>
		<polyline class="st2" points="93.1,69.9 1.9,31.9 1.9,31.9 53.9,1.9 		"/>
		<polygon class="st0" points="53.9,1.9 1.9,31.9 53.9,61.9 53.9,61.9 105.8,31.9 		"/>
	</g>
	<g>
		<path class="st0" d="M135.7,55.6c1.4,0.7,3.7,1.4,6.7,2.1c3,0.8,5.5,1.5,7.4,2.3s3.5,1.9,4.9,3.5s2,3.7,2,6.4c0,3.3-1.3,6-3.9,8.2
			c-2.6,2.1-6.2,3.2-11,3.2c-5.1,0-9.8-1.1-14-3.4c-0.9-0.6-1.3-1.5-1.3-2.5c0-0.8,0.3-1.5,0.8-2.1c0.6-0.6,1.3-0.9,2.1-0.9
			c0.5,0,0.9,0.1,1.4,0.3c1.6,0.7,3.3,1.3,4.9,1.7c1.6,0.4,3.5,0.6,5.5,0.6c5.7,0,8.5-1.8,8.5-5.5c0-1.2-0.7-2.1-2-2.7
			s-3.4-1.3-6.4-2.1c-3-0.7-5.5-1.5-7.5-2.2c-2-0.8-3.7-1.9-5.1-3.5c-1.4-1.6-2.1-3.6-2.1-6.2c0-3.6,1.3-6.5,3.9-8.8
			c2.6-2.2,6.3-3.4,11.1-3.4c3.9,0,7.7,0.7,11.1,1.9c0.7,0.2,1.3,0.6,1.7,1.1c0.4,0.6,0.6,1.1,0.6,1.8c0,0.8-0.3,1.5-0.9,2.1
			c-0.6,0.6-1.3,0.9-2.2,0.9c-0.3,0-0.6-0.1-1-0.2c-3-0.9-5.9-1.4-8.8-1.4c-2.8,0-4.9,0.5-6.5,1.5s-2.3,2.3-2.3,3.9
			C133.5,53.8,134.2,54.9,135.7,55.6z"/>
		<path class="st0" d="M186.6,75.2c0.6,0.6,0.8,1.2,0.8,2c0,1.2-0.6,2.1-1.8,2.7c-2,0.9-4.1,1.4-6.4,1.4c-7.5,0-11.2-3.4-11.2-10.1
			V47.4h-5.5c-0.4,0-0.7-0.1-1-0.4s-0.4-0.6-0.4-1c0-0.5,0.2-0.9,0.7-1.3l10.5-10.2c0.5-0.5,0.9-0.7,1.3-0.7c0.4,0,0.7,0.2,1,0.5
			s0.4,0.7,0.4,1.1v6.1h8.7c0.9,0,1.6,0.3,2.1,0.8c0.6,0.6,0.8,1.3,0.8,2.1c0,0.8-0.3,1.5-0.8,2.1c-0.6,0.6-1.3,0.9-2.1,0.9H175
			v23.2c0,2,0.5,3.3,1.4,3.8c0.9,0.6,2.1,0.8,3.6,0.8c1,0,2-0.2,3.1-0.5c0.2-0.1,0.4-0.1,0.7-0.2c0.2-0.1,0.5-0.1,0.9-0.1
			C185.4,74.4,186,74.6,186.6,75.2z"/>
		<path class="st0" d="M227.2,72.8c0.6,0.6,0.9,1.3,0.9,2.1c0,1.1-0.7,2.1-2,2.9c-2,1.1-4,2-5.9,2.5c-2,0.6-4.5,0.8-7.5,0.8
			c-6.2,0-11.1-1.8-14.7-5.3c-3.5-3.6-5.3-8.6-5.3-15c0-3.6,0.7-7,2-10.1s3.4-5.6,6.1-7.4c2.8-1.9,6.2-2.9,10.2-2.9
			c3.8,0,7.1,0.9,9.8,2.7s4.9,4.1,6.3,7.1s2.1,6.2,2.1,9.7c0,1-0.3,1.8-1,2.5s-1.5,1-2.6,1h-26.1c0.4,3.6,1.8,6.4,4,8.4s5.4,3,9.5,3
			c2.1,0,4-0.2,5.7-0.6c1.6-0.4,3.2-1,4.7-1.8c0.4-0.2,0.9-0.3,1.4-0.3C225.8,72,226.6,72.3,227.2,72.8z M206,47.6
			c-1.7,0.8-3.1,2-4.2,3.7s-1.8,3.8-1.9,6.3h22.7c-0.2-2.5-0.8-4.6-2-6.3c-1.1-1.7-2.6-2.9-4.3-3.7c-1.7-0.8-3.4-1.2-5.1-1.2
			C209.4,46.4,207.6,46.8,206,47.6z"/>
		<path class="st0" d="M271,72.8c0.6,0.6,0.9,1.3,0.9,2.1c0,1.1-0.7,2.1-2,2.9c-2,1.1-4,2-5.9,2.5c-2,0.6-4.5,0.8-7.5,0.8
			c-6.2,0-11.1-1.8-14.7-5.3c-3.5-3.6-5.3-8.6-5.3-15c0-3.6,0.7-7,2-10.1s3.4-5.6,6.1-7.4c2.8-1.9,6.2-2.9,10.2-2.9
			c3.8,0,7.1,0.9,9.8,2.7s4.9,4.1,6.3,7.1s2.1,6.2,2.1,9.7c0,1-0.3,1.8-1,2.5s-1.5,1-2.6,1h-26.1c0.4,3.6,1.8,6.4,4,8.4s5.4,3,9.5,3
			c2.1,0,4-0.2,5.7-0.6c1.6-0.4,3.2-1,4.7-1.8c0.4-0.2,0.9-0.3,1.4-0.3C269.7,72,270.4,72.3,271,72.8z M249.8,47.6
			c-1.7,0.8-3.1,2-4.2,3.7s-1.8,3.8-1.9,6.3h22.7c-0.2-2.5-0.8-4.6-2-6.3c-1.1-1.7-2.6-2.9-4.3-3.7c-1.7-0.8-3.4-1.2-5.1-1.2
			C253.2,46.4,251.5,46.8,249.8,47.6z"/>
		<path class="st0" d="M289.3,24.9c0.7,0.7,1,1.5,1,2.5v49.9c0,1-0.4,1.8-1,2.5c-0.7,0.7-1.5,1-2.5,1s-1.8-0.3-2.5-1s-1-1.5-1-2.5
			V27.4c0-1,0.3-1.8,1-2.5s1.5-1,2.5-1S288.6,24.3,289.3,24.9z"/>
		<path class="st0" d="M324.1,75.2c0.6,0.6,0.8,1.2,0.8,2c0,1.2-0.6,2.1-1.8,2.7c-2,0.9-4.1,1.4-6.4,1.4c-7.5,0-11.2-3.4-11.2-10.1
			V47.4H300c-0.4,0-0.7-0.1-1-0.4s-0.4-0.6-0.4-1c0-0.5,0.2-0.9,0.7-1.3l10.5-10.2c0.5-0.5,0.9-0.7,1.3-0.7s0.7,0.2,1,0.5
			s0.4,0.7,0.4,1.1v6.1h8.7c0.9,0,1.6,0.3,2.1,0.8c0.6,0.6,0.8,1.3,0.8,2.1c0,0.8-0.3,1.5-0.8,2.1c-0.6,0.6-1.3,0.9-2.1,0.9h-8.7
			v23.2c0,2,0.5,3.3,1.4,3.8c0.9,0.6,2.1,0.8,3.6,0.8c1,0,2-0.2,3.1-0.5c0.2-0.1,0.4-0.1,0.7-0.2c0.2-0.1,0.5-0.1,0.9-0.1
			C322.9,74.4,323.6,74.6,324.1,75.2z"/>
		<path class="st0" d="M360.2,43c3,1.7,5.3,4.1,6.9,7.2s2.5,6.7,2.5,10.7s-0.8,7.5-2.5,10.7c-1.6,3.1-3.9,5.5-6.9,7.2
			s-6.4,2.5-10.3,2.5s-7.4-0.8-10.4-2.5s-5.3-4.1-6.9-7.2s-2.4-6.7-2.4-10.7s0.8-7.5,2.4-10.7c1.6-3.1,3.9-5.5,6.9-7.2
			s6.4-2.5,10.4-2.5C353.8,40.5,357.2,41.3,360.2,43z M355.9,73.4c1.9-1,3.5-2.5,4.8-4.6s1.9-4.8,1.9-8s-0.6-5.8-1.9-7.9
			s-2.9-3.6-4.8-4.6c-1.9-0.9-3.9-1.4-6-1.4s-4.2,0.5-6.1,1.4s-3.5,2.5-4.7,4.6s-1.9,4.7-1.9,7.9c0,3.2,0.6,5.9,1.9,8
			c1.2,2.1,2.8,3.6,4.7,4.6c1.9,1,4,1.5,6.1,1.5C352,74.8,354,74.4,355.9,73.4z"/>
		<path class="st0" d="M411.5,72.8c0.6,0.6,0.9,1.3,0.9,2.1c0,1.1-0.7,2.1-2,2.9c-2,1.1-4,2-5.9,2.5c-2,0.6-4.5,0.8-7.5,0.8
			c-6.2,0-11.1-1.8-14.7-5.3c-3.5-3.6-5.3-8.6-5.3-15c0-3.6,0.7-7,2-10.1s3.4-5.6,6.1-7.4c2.8-1.9,6.2-2.9,10.2-2.9
			c3.8,0,7.1,0.9,9.8,2.7s4.9,4.1,6.3,7.1s2.1,6.2,2.1,9.7c0,1-0.3,1.8-1,2.5s-1.5,1-2.6,1h-26.1c0.4,3.6,1.8,6.4,4,8.4s5.4,3,9.5,3
			c2.1,0,4-0.2,5.7-0.6c1.6-0.4,3.2-1,4.7-1.8c0.4-0.2,0.9-0.3,1.4-0.3C410.1,72,410.8,72.3,411.5,72.8z M390.2,47.6
			c-1.7,0.8-3.1,2-4.2,3.7s-1.8,3.8-1.9,6.3h22.7c-0.2-2.5-0.8-4.6-2-6.3c-1.1-1.7-2.6-2.9-4.3-3.7c-1.7-0.8-3.4-1.2-5.1-1.2
			C393.6,46.4,391.9,46.8,390.2,47.6z"/>
		<g>
			<path class="st0" d="M420.9,50c-2.6,0-4.7-2.1-4.7-4.7s2.1-4.7,4.7-4.7s4.7,2.1,4.7,4.7C425.7,47.9,423.6,50,420.9,50z
				 M420.9,41.3c-2.2,0-4,1.8-4,4s1.8,4,4,4s4-1.8,4-4C424.9,43,423.1,41.3,420.9,41.3z M422.2,48l-1.4-2.1h-0.9V48h-0.8v-5.4h2.2
				c0.9,0,1.8,0.6,1.8,1.7c0,1.2-1.1,1.6-1.4,1.6l1.5,2.2L422.2,48L422.2,48z M421.3,43.2h-1.5v1.9h1.5c0.5,0,1-0.4,1-0.9
				C422.3,43.6,421.8,43.2,421.3,43.2z"/>
		</g>
	</g>
</g>
</svg>
